<svg xmlns="http://www.w3.org/2000/svg" viewBox="0 0 720 380" width="720" height="380" role="img"><rect width="720" height="380" fill="#fcfcfb" rx="8"/><text x="28" y="26" font-family="system-ui,-apple-system,'Segoe UI',sans-serif" font-size="16" font-weight="600" fill="#0b0b0b">Collector CPU per event</text><text x="28" y="44" font-family="system-ui,-apple-system,'Segoe UI',sans-serif" font-size="12" fill="#898781">every run, 1k to 100k tasks and 200 to 7,850 events/s</text><line x1="74" y1="322.0" x2="696" y2="322.0" stroke="#e1e0d9" stroke-width="1"/><text x="66" y="326.0" text-anchor="end" font-family="system-ui,-apple-system,'Segoe UI',sans-serif" font-size="11" fill="#898781" font-variant-numeric="tabular-nums">0</text><line x1="74" y1="261.0" x2="696" y2="261.0" stroke="#e1e0d9" stroke-width="1"/><text x="66" y="265.0" text-anchor="end" font-family="system-ui,-apple-system,'Segoe UI',sans-serif" font-size="11" fill="#898781" font-variant-numeric="tabular-nums">50</text><line x1="74" y1="200.0" x2="696" y2="200.0" stroke="#e1e0d9" stroke-width="1"/><text x="66" y="204.0" text-anchor="end" font-family="system-ui,-apple-system,'Segoe UI',sans-serif" font-size="11" fill="#898781" font-variant-numeric="tabular-nums">100</text><line x1="74" y1="139.0" x2="696" y2="139.0" stroke="#e1e0d9" stroke-width="1"/><text x="66" y="143.0" text-anchor="end" font-family="system-ui,-apple-system,'Segoe UI',sans-serif" font-size="11" fill="#898781" font-variant-numeric="tabular-nums">150</text><line x1="74" y1="78.0" x2="696" y2="78.0" stroke="#e1e0d9" stroke-width="1"/><text x="66" y="82.0" text-anchor="end" font-family="system-ui,-apple-system,'Segoe UI',sans-serif" font-size="11" fill="#898781" font-variant-numeric="tabular-nums">200</text><line x1="74" y1="322" x2="696" y2="322" stroke="#c3c2b7" stroke-width="1"/><text x="28" y="66" font-family="system-ui,-apple-system,'Segoe UI',sans-serif" font-size="11" fill="#898781">microseconds of CPU per event</text><text x="136.2" y="342.0" text-anchor="middle" font-family="system-ui,-apple-system,'Segoe UI',sans-serif" font-size="12" fill="#52514e"></text><text x="260.6" y="342.0" text-anchor="middle" font-family="system-ui,-apple-system,'Segoe UI',sans-serif" font-size="12" fill="#52514e"></text><text x="385.0" y="342.0" text-anchor="middle" font-family="system-ui,-apple-system,'Segoe UI',sans-serif" font-size="12" fill="#52514e"></text><text x="509.4" y="342.0" text-anchor="middle" font-family="system-ui,-apple-system,'Segoe UI',sans-serif" font-size="12" fill="#52514e"></text><text x="633.8" y="342.0" text-anchor="middle" font-family="system-ui,-apple-system,'Segoe UI',sans-serif" font-size="12" fill="#52514e"></text><text x="74.0" y="342.0" text-anchor="middle" font-family="system-ui,-apple-system,'Segoe UI',sans-serif" font-size="12" fill="#52514e" font-variant-numeric="tabular-nums">0</text><text x="229.5" y="342.0" text-anchor="middle" font-family="system-ui,-apple-system,'Segoe UI',sans-serif" font-size="12" fill="#52514e" font-variant-numeric="tabular-nums">2,000</text><text x="385.0" y="342.0" text-anchor="middle" font-family="system-ui,-apple-system,'Segoe UI',sans-serif" font-size="12" fill="#52514e" font-variant-numeric="tabular-nums">4,000</text><text x="540.5" y="342.0" text-anchor="middle" font-family="system-ui,-apple-system,'Segoe UI',sans-serif" font-size="12" fill="#52514e" font-variant-numeric="tabular-nums">6,000</text><text x="696.0" y="342.0" text-anchor="middle" font-family="system-ui,-apple-system,'Segoe UI',sans-serif" font-size="12" fill="#52514e" font-variant-numeric="tabular-nums">8,000</text><text x="696" y="360.0" text-anchor="end" font-family="system-ui,-apple-system,'Segoe UI',sans-serif" font-size="11" fill="#898781">events per second on one Ray node</text><rect x="74" y="162.2" width="622" height="19.5" fill="#1baf7a" opacity="0.13"/><text x="690" y="156.2" text-anchor="end" font-family="system-ui,-apple-system,'Segoe UI',sans-serif" font-size="11" fill="#52514e">measured band 115-131 us</text><circle cx="89.7" cy="147.4" r="5" fill="#2a78d6" stroke="#fcfcfb" stroke-width="2"/><circle cx="91.7" cy="141.3" r="5" fill="#2a78d6" stroke="#fcfcfb" stroke-width="2"/><circle cx="93.1" cy="138.9" r="5" fill="#2a78d6" stroke="#fcfcfb" stroke-width="2"/><circle cx="168.0" cy="170.4" r="5" fill="#2a78d6" stroke="#fcfcfb" stroke-width="2"/><circle cx="174.4" cy="170.8" r="5" fill="#2a78d6" stroke="#fcfcfb" stroke-width="2"/><circle cx="181.1" cy="170.7" r="5" fill="#2a78d6" stroke="#fcfcfb" stroke-width="2"/><circle cx="255.8" cy="179.6" r="5" fill="#2a78d6" stroke="#fcfcfb" stroke-width="2"/><circle cx="256.1" cy="176.3" r="5" fill="#2a78d6" stroke="#fcfcfb" stroke-width="2"/><circle cx="271.2" cy="172.9" r="5" fill="#2a78d6" stroke="#fcfcfb" stroke-width="2"/><circle cx="406.6" cy="175.5" r="5" fill="#2a78d6" stroke="#fcfcfb" stroke-width="2"/><circle cx="426.8" cy="178.9" r="5" fill="#2a78d6" stroke="#fcfcfb" stroke-width="2"/><circle cx="435.2" cy="171.2" r="5" fill="#2a78d6" stroke="#fcfcfb" stroke-width="2"/><circle cx="441.4" cy="177.1" r="5" fill="#2a78d6" stroke="#fcfcfb" stroke-width="2"/><circle cx="445.4" cy="177.4" r="5" fill="#2a78d6" stroke="#fcfcfb" stroke-width="2"/><circle cx="556.2" cy="160.6" r="5" fill="#2a78d6" stroke="#fcfcfb" stroke-width="2"/><circle cx="575.4" cy="174.0" r="5" fill="#2a78d6" stroke="#fcfcfb" stroke-width="2"/><circle cx="584.7" cy="153.4" r="5" fill="#2a78d6" stroke="#fcfcfb" stroke-width="2"/><circle cx="595.6" cy="172.8" r="5" fill="#2a78d6" stroke="#fcfcfb" stroke-width="2"/><circle cx="604.9" cy="175.8" r="5" fill="#2a78d6" stroke="#fcfcfb" stroke-width="2"/><circle cx="614.9" cy="165.4" r="5" fill="#2a78d6" stroke="#fcfcfb" stroke-width="2"/><circle cx="615.3" cy="162.2" r="5" fill="#2a78d6" stroke="#fcfcfb" stroke-width="2"/><circle cx="619.7" cy="165.6" r="5" fill="#2a78d6" stroke="#fcfcfb" stroke-width="2"/><circle cx="621.0" cy="162.4" r="5" fill="#2a78d6" stroke="#fcfcfb" stroke-width="2"/><circle cx="621.3" cy="177.9" r="5" fill="#2a78d6" stroke="#fcfcfb" stroke-width="2"/><circle cx="625.0" cy="177.4" r="5" fill="#2a78d6" stroke="#fcfcfb" stroke-width="2"/><circle cx="630.4" cy="178.3" r="5" fill="#2a78d6" stroke="#fcfcfb" stroke-width="2"/><circle cx="635.6" cy="165.7" r="5" fill="#2a78d6" stroke="#fcfcfb" stroke-width="2"/><circle cx="641.2" cy="174.4" r="5" fill="#2a78d6" stroke="#fcfcfb" stroke-width="2"/><circle cx="642.4" cy="166.7" r="5" fill="#2a78d6" stroke="#fcfcfb" stroke-width="2"/><circle cx="649.1" cy="162.8" r="5" fill="#2a78d6" stroke="#fcfcfb" stroke-width="2"/><circle cx="652.3" cy="164.4" r="5" fill="#2a78d6" stroke="#fcfcfb" stroke-width="2"/><circle cx="654.2" cy="169.3" r="5" fill="#2a78d6" stroke="#fcfcfb" stroke-width="2"/><circle cx="655.7" cy="177.4" r="5" fill="#2a78d6" stroke="#fcfcfb" stroke-width="2"/><circle cx="655.9" cy="181.3" r="5" fill="#2a78d6" stroke="#fcfcfb" stroke-width="2"/><circle cx="660.1" cy="165.7" r="5" fill="#2a78d6" stroke="#fcfcfb" stroke-width="2"/><circle cx="666.5" cy="176.7" r="5" fill="#2a78d6" stroke="#fcfcfb" stroke-width="2"/><circle cx="666.7" cy="171.2" r="5" fill="#2a78d6" stroke="#fcfcfb" stroke-width="2"/><circle cx="675.5" cy="180.7" r="5" fill="#2a78d6" stroke="#fcfcfb" stroke-width="2"/><circle cx="675.8" cy="172.9" r="5" fill="#2a78d6" stroke="#fcfcfb" stroke-width="2"/><circle cx="684.3" cy="174.7" r="5" fill="#2a78d6" stroke="#fcfcfb" stroke-width="2"/><circle cx="742.8" cy="166.6" r="5" fill="#2a78d6" stroke="#fcfcfb" stroke-width="2"/><circle cx="748.0" cy="161.8" r="5" fill="#2a78d6" stroke="#fcfcfb" stroke-width="2"/><text x="696" y="64" text-anchor="end" font-family="system-ui,-apple-system,'Segoe UI',sans-serif" font-size="11" fill="#898781">flat: cost is per event, not per session</text></svg>
