<svg xmlns="http://www.w3.org/2000/svg" viewBox="0 0 720 380" width="720" height="380" role="img"><rect width="720" height="380" fill="#1a1a19" rx="8"/><text x="28" y="26" font-family="system-ui,-apple-system,'Segoe UI',sans-serif" font-size="16" font-weight="600" fill="#ffffff">Collector memory</text><text x="28" y="44" font-family="system-ui,-apple-system,'Segoe UI',sans-serif" font-size="12" fill="#898781">sidecar heap does not grow with session size</text><line x1="74" y1="322.0" x2="696" y2="322.0" stroke="#2c2c2a" stroke-width="1"/><text x="66" y="326.0" text-anchor="end" font-family="system-ui,-apple-system,'Segoe UI',sans-serif" font-size="11" fill="#898781" font-variant-numeric="tabular-nums">0</text><line x1="74" y1="273.2" x2="696" y2="273.2" stroke="#2c2c2a" stroke-width="1"/><text x="66" y="277.2" text-anchor="end" font-family="system-ui,-apple-system,'Segoe UI',sans-serif" font-size="11" fill="#898781" font-variant-numeric="tabular-nums">40</text><line x1="74" y1="224.4" x2="696" y2="224.4" stroke="#2c2c2a" stroke-width="1"/><text x="66" y="228.4" text-anchor="end" font-family="system-ui,-apple-system,'Segoe UI',sans-serif" font-size="11" fill="#898781" font-variant-numeric="tabular-nums">80</text><line x1="74" y1="175.6" x2="696" y2="175.6" stroke="#2c2c2a" stroke-width="1"/><text x="66" y="179.6" text-anchor="end" font-family="system-ui,-apple-system,'Segoe UI',sans-serif" font-size="11" fill="#898781" font-variant-numeric="tabular-nums">120</text><line x1="74" y1="126.8" x2="696" y2="126.8" stroke="#2c2c2a" stroke-width="1"/><text x="66" y="130.8" text-anchor="end" font-family="system-ui,-apple-system,'Segoe UI',sans-serif" font-size="11" fill="#898781" font-variant-numeric="tabular-nums">160</text><line x1="74" y1="78.0" x2="696" y2="78.0" stroke="#2c2c2a" stroke-width="1"/><text x="66" y="82.0" text-anchor="end" font-family="system-ui,-apple-system,'Segoe UI',sans-serif" font-size="11" fill="#898781" font-variant-numeric="tabular-nums">200</text><line x1="74" y1="322" x2="696" y2="322" stroke="#383835" stroke-width="1"/><text x="28" y="66" font-family="system-ui,-apple-system,'Segoe UI',sans-serif" font-size="11" fill="#898781">MiB (anon)</text><text x="136.2" y="342.0" text-anchor="middle" font-family="system-ui,-apple-system,'Segoe UI',sans-serif" font-size="12" fill="#c3c2b7">1k</text><text x="260.6" y="342.0" text-anchor="middle" font-family="system-ui,-apple-system,'Segoe UI',sans-serif" font-size="12" fill="#c3c2b7">5k</text><text x="385.0" y="342.0" text-anchor="middle" font-family="system-ui,-apple-system,'Segoe UI',sans-serif" font-size="12" fill="#c3c2b7">10k</text><text x="509.4" y="342.0" text-anchor="middle" font-family="system-ui,-apple-system,'Segoe UI',sans-serif" font-size="12" fill="#c3c2b7">50k</text><text x="633.8" y="342.0" text-anchor="middle" font-family="system-ui,-apple-system,'Segoe UI',sans-serif" font-size="12" fill="#c3c2b7">100k</text><path d="M89.2,322 L89.2,247.4 Q89.2,243.4 93.2,243.4 L131.2,243.4 Q135.2,243.4 135.2,247.4 L135.2,322 Z" fill="#3987e5"/><text x="112.2" y="237.4" text-anchor="middle" font-family="system-ui,-apple-system,'Segoe UI',sans-serif" font-size="11" fill="#ffffff" font-variant-numeric="tabular-nums">64</text><path d="M213.6,322 L213.6,233.6 Q213.6,229.6 217.6,229.6 L255.6,229.6 Q259.6,229.6 259.6,233.6 L259.6,322 Z" fill="#3987e5"/><text x="236.6" y="223.6" text-anchor="middle" font-family="system-ui,-apple-system,'Segoe UI',sans-serif" font-size="11" fill="#ffffff" font-variant-numeric="tabular-nums">76</text><path d="M338.0,322 L338.0,218.2 Q338.0,214.2 342.0,214.2 L380.0,214.2 Q384.0,214.2 384.0,218.2 L384.0,322 Z" fill="#3987e5"/><text x="361.0" y="208.2" text-anchor="middle" font-family="system-ui,-apple-system,'Segoe UI',sans-serif" font-size="11" fill="#ffffff" font-variant-numeric="tabular-nums">88</text><path d="M462.4,322 L462.4,187.3 Q462.4,183.3 466.4,183.3 L504.4,183.3 Q508.4,183.3 508.4,187.3 L508.4,322 Z" fill="#3987e5"/><text x="485.4" y="177.3" text-anchor="middle" font-family="system-ui,-apple-system,'Segoe UI',sans-serif" font-size="11" fill="#ffffff" font-variant-numeric="tabular-nums">114</text><path d="M586.8,322 L586.8,182.7 Q586.8,178.7 590.8,178.7 L628.8,178.7 Q632.8,178.7 632.8,182.7 L632.8,322 Z" fill="#3987e5"/><text x="609.8" y="172.7" text-anchor="middle" font-family="system-ui,-apple-system,'Segoe UI',sans-serif" font-size="11" fill="#ffffff" font-variant-numeric="tabular-nums">118</text><path d="M137.2,322 L137.2,234.7 Q137.2,230.7 141.2,230.7 L179.2,230.7 Q183.2,230.7 183.2,234.7 L183.2,322 Z" fill="#d95926"/><text x="160.2" y="224.7" text-anchor="middle" font-family="system-ui,-apple-system,'Segoe UI',sans-serif" font-size="11" fill="#ffffff" font-variant-numeric="tabular-nums">75</text><path d="M261.6,322 L261.6,211.7 Q261.6,207.7 265.6,207.7 L303.6,207.7 Q307.6,207.7 307.6,211.7 L307.6,322 Z" fill="#d95926"/><text x="284.6" y="201.7" text-anchor="middle" font-family="system-ui,-apple-system,'Segoe UI',sans-serif" font-size="11" fill="#ffffff" font-variant-numeric="tabular-nums">94</text><path d="M386.0,322 L386.0,202.7 Q386.0,198.7 390.0,198.7 L428.0,198.7 Q432.0,198.7 432.0,202.7 L432.0,322 Z" fill="#d95926"/><text x="409.0" y="192.7" text-anchor="middle" font-family="system-ui,-apple-system,'Segoe UI',sans-serif" font-size="11" fill="#ffffff" font-variant-numeric="tabular-nums">101</text><path d="M510.4,322 L510.4,149.6 Q510.4,145.6 514.4,145.6 L552.4,145.6 Q556.4,145.6 556.4,149.6 L556.4,322 Z" fill="#d95926"/><text x="533.4" y="139.6" text-anchor="middle" font-family="system-ui,-apple-system,'Segoe UI',sans-serif" font-size="11" fill="#ffffff" font-variant-numeric="tabular-nums">145</text><path d="M634.8,322 L634.8,149.1 Q634.8,145.1 638.8,145.1 L676.8,145.1 Q680.8,145.1 680.8,149.1 L680.8,322 Z" fill="#d95926"/><text x="657.8" y="139.1" text-anchor="middle" font-family="system-ui,-apple-system,'Segoe UI',sans-serif" font-size="11" fill="#ffffff" font-variant-numeric="tabular-nums">145</text><rect x="74" y="358" width="10" height="10" rx="2" fill="#3987e5"/><text x="89" y="367" font-family="system-ui,-apple-system,'Segoe UI',sans-serif" font-size="11" fill="#c3c2b7">worker sidecar</text><rect x="188.39999999999998" y="358" width="10" height="10" rx="2" fill="#d95926"/><text x="203.39999999999998" y="367" font-family="system-ui,-apple-system,'Segoe UI',sans-serif" font-size="11" fill="#c3c2b7">head sidecar</text><text x="696" y="64" text-anchor="end" font-family="system-ui,-apple-system,'Segoe UI',sans-serif" font-size="11" fill="#898781">streaming design: events go to disk, not to the heap</text></svg>
