<svg xmlns="http://www.w3.org/2000/svg" viewBox="0 0 720 380" width="720" height="380" role="img"><rect width="720" height="380" fill="#1a1a19" rx="8"/><text x="28" y="26" font-family="system-ui,-apple-system,'Segoe UI',sans-serif" font-size="16" font-weight="600" fill="#ffffff">Cold load vs the History Server&#x27;s CPU limit</text><text x="28" y="44" font-family="system-ui,-apple-system,'Segoe UI',sans-serif" font-size="12" fill="#898781">50k tasks, same code and cluster; only resources.limits.cpu changed</text><line x1="74" y1="322.0" x2="696" y2="322.0" stroke="#2c2c2a" stroke-width="1"/><text x="66" y="326.0" text-anchor="end" font-family="system-ui,-apple-system,'Segoe UI',sans-serif" font-size="11" fill="#898781" font-variant-numeric="tabular-nums">0</text><line x1="74" y1="273.2" x2="696" y2="273.2" stroke="#2c2c2a" stroke-width="1"/><text x="66" y="277.2" text-anchor="end" font-family="system-ui,-apple-system,'Segoe UI',sans-serif" font-size="11" fill="#898781" font-variant-numeric="tabular-nums">20</text><line x1="74" y1="224.4" x2="696" y2="224.4" stroke="#2c2c2a" stroke-width="1"/><text x="66" y="228.4" text-anchor="end" font-family="system-ui,-apple-system,'Segoe UI',sans-serif" font-size="11" fill="#898781" font-variant-numeric="tabular-nums">40</text><line x1="74" y1="175.6" x2="696" y2="175.6" stroke="#2c2c2a" stroke-width="1"/><text x="66" y="179.6" text-anchor="end" font-family="system-ui,-apple-system,'Segoe UI',sans-serif" font-size="11" fill="#898781" font-variant-numeric="tabular-nums">60</text><line x1="74" y1="126.8" x2="696" y2="126.8" stroke="#2c2c2a" stroke-width="1"/><text x="66" y="130.8" text-anchor="end" font-family="system-ui,-apple-system,'Segoe UI',sans-serif" font-size="11" fill="#898781" font-variant-numeric="tabular-nums">80</text><line x1="74" y1="78.0" x2="696" y2="78.0" stroke="#2c2c2a" stroke-width="1"/><text x="66" y="82.0" text-anchor="end" font-family="system-ui,-apple-system,'Segoe UI',sans-serif" font-size="11" fill="#898781" font-variant-numeric="tabular-nums">100</text><line x1="74" y1="322" x2="696" y2="322" stroke="#383835" stroke-width="1"/><text x="28" y="66" font-family="system-ui,-apple-system,'Segoe UI',sans-serif" font-size="11" fill="#898781">seconds</text><text x="151.8" y="342.0" text-anchor="middle" font-family="system-ui,-apple-system,'Segoe UI',sans-serif" font-size="12" fill="#c3c2b7">500m (shipped)</text><text x="307.2" y="342.0" text-anchor="middle" font-family="system-ui,-apple-system,'Segoe UI',sans-serif" font-size="12" fill="#c3c2b7">1</text><text x="462.8" y="342.0" text-anchor="middle" font-family="system-ui,-apple-system,'Segoe UI',sans-serif" font-size="12" fill="#c3c2b7">2</text><text x="618.2" y="342.0" text-anchor="middle" font-family="system-ui,-apple-system,'Segoe UI',sans-serif" font-size="12" fill="#c3c2b7">4</text><path d="M128.8,322 L128.8,118.8 Q128.8,114.8 132.8,114.8 L170.8,114.8 Q174.8,114.8 174.8,118.8 L174.8,322 Z" fill="#3987e5"/><text x="151.8" y="108.8" text-anchor="middle" font-family="system-ui,-apple-system,'Segoe UI',sans-serif" font-size="11" fill="#ffffff" font-variant-numeric="tabular-nums">84.9s</text><path d="M284.2,322 L284.2,232.8 Q284.2,228.8 288.2,228.8 L326.2,228.8 Q330.2,228.8 330.2,232.8 L330.2,322 Z" fill="#3987e5"/><text x="307.2" y="222.8" text-anchor="middle" font-family="system-ui,-apple-system,'Segoe UI',sans-serif" font-size="11" fill="#ffffff" font-variant-numeric="tabular-nums">38.2s</text><path d="M439.8,322 L439.8,248.7 Q439.8,244.7 443.8,244.7 L481.8,244.7 Q485.8,244.7 485.8,248.7 L485.8,322 Z" fill="#3987e5"/><text x="462.8" y="238.7" text-anchor="middle" font-family="system-ui,-apple-system,'Segoe UI',sans-serif" font-size="11" fill="#ffffff" font-variant-numeric="tabular-nums">31.7s</text><path d="M595.2,322 L595.2,240.8 Q595.2,236.8 599.2,236.8 L637.2,236.8 Q641.2,236.8 641.2,240.8 L641.2,322 Z" fill="#3987e5"/><text x="618.2" y="230.8" text-anchor="middle" font-family="system-ui,-apple-system,'Segoe UI',sans-serif" font-size="11" fill="#ffffff" font-variant-numeric="tabular-nums">34.9s</text><text x="696" y="64" text-anchor="end" font-family="system-ui,-apple-system,'Segoe UI',sans-serif" font-size="11" fill="#898781">at 100k the 500m configuration never returned a response at all</text></svg>
