<svg xmlns="http://www.w3.org/2000/svg" viewBox="0 0 720 380" width="720" height="380" role="img"><rect width="720" height="380" fill="#1a1a19" rx="8"/><text x="28" y="26" font-family="system-ui,-apple-system,'Segoe UI',sans-serif" font-size="16" font-weight="600" fill="#ffffff">Cold load per task</text><text x="28" y="44" font-family="system-ui,-apple-system,'Segoe UI',sans-serif" font-size="12" fill="#898781">flat means the cost scales linearly with task count</text><line x1="74" y1="322.0" x2="696" y2="322.0" stroke="#2c2c2a" stroke-width="1"/><text x="66" y="326.0" text-anchor="end" font-family="system-ui,-apple-system,'Segoe UI',sans-serif" font-size="11" fill="#898781" font-variant-numeric="tabular-nums">0</text><line x1="74" y1="281.3" x2="696" y2="281.3" stroke="#2c2c2a" stroke-width="1"/><text x="66" y="285.3" text-anchor="end" font-family="system-ui,-apple-system,'Segoe UI',sans-serif" font-size="11" fill="#898781" font-variant-numeric="tabular-nums">0.50</text><line x1="74" y1="240.7" x2="696" y2="240.7" stroke="#2c2c2a" stroke-width="1"/><text x="66" y="244.7" text-anchor="end" font-family="system-ui,-apple-system,'Segoe UI',sans-serif" font-size="11" fill="#898781" font-variant-numeric="tabular-nums">1.0</text><line x1="74" y1="200.0" x2="696" y2="200.0" stroke="#2c2c2a" stroke-width="1"/><text x="66" y="204.0" text-anchor="end" font-family="system-ui,-apple-system,'Segoe UI',sans-serif" font-size="11" fill="#898781" font-variant-numeric="tabular-nums">1.5</text><line x1="74" y1="159.3" x2="696" y2="159.3" stroke="#2c2c2a" stroke-width="1"/><text x="66" y="163.3" text-anchor="end" font-family="system-ui,-apple-system,'Segoe UI',sans-serif" font-size="11" fill="#898781" font-variant-numeric="tabular-nums">2.0</text><line x1="74" y1="118.7" x2="696" y2="118.7" stroke="#2c2c2a" stroke-width="1"/><text x="66" y="122.7" text-anchor="end" font-family="system-ui,-apple-system,'Segoe UI',sans-serif" font-size="11" fill="#898781" font-variant-numeric="tabular-nums">2.5</text><line x1="74" y1="78.0" x2="696" y2="78.0" stroke="#2c2c2a" stroke-width="1"/><text x="66" y="82.0" text-anchor="end" font-family="system-ui,-apple-system,'Segoe UI',sans-serif" font-size="11" fill="#898781" font-variant-numeric="tabular-nums">3.0</text><line x1="74" y1="322" x2="696" y2="322" stroke="#383835" stroke-width="1"/><text x="28" y="66" font-family="system-ui,-apple-system,'Segoe UI',sans-serif" font-size="11" fill="#898781">milliseconds per task</text><text x="125.8" y="342.0" text-anchor="middle" font-family="system-ui,-apple-system,'Segoe UI',sans-serif" font-size="12" fill="#c3c2b7">1k</text><text x="229.5" y="342.0" text-anchor="middle" font-family="system-ui,-apple-system,'Segoe UI',sans-serif" font-size="12" fill="#c3c2b7">5k</text><text x="333.2" y="342.0" text-anchor="middle" font-family="system-ui,-apple-system,'Segoe UI',sans-serif" font-size="12" fill="#c3c2b7">10k</text><text x="436.8" y="342.0" text-anchor="middle" font-family="system-ui,-apple-system,'Segoe UI',sans-serif" font-size="12" fill="#c3c2b7">20k</text><text x="540.5" y="342.0" text-anchor="middle" font-family="system-ui,-apple-system,'Segoe UI',sans-serif" font-size="12" fill="#c3c2b7">50k</text><text x="644.2" y="342.0" text-anchor="middle" font-family="system-ui,-apple-system,'Segoe UI',sans-serif" font-size="12" fill="#c3c2b7">100k</text><path d="M86.0,322 L86.0,140.6 Q86.0,136.6 90.0,136.6 L120.8,136.6 Q124.8,136.6 124.8,140.6 L124.8,322 Z" fill="#d95926"/><text x="105.4" y="130.6" text-anchor="middle" font-family="system-ui,-apple-system,'Segoe UI',sans-serif" font-size="11" fill="#ffffff" font-variant-numeric="tabular-nums">2.3</text><path d="M189.7,322 L189.7,165.8 Q189.7,161.8 193.7,161.8 L224.5,161.8 Q228.5,161.8 228.5,165.8 L228.5,322 Z" fill="#d95926"/><text x="209.1" y="155.8" text-anchor="middle" font-family="system-ui,-apple-system,'Segoe UI',sans-serif" font-size="11" fill="#ffffff" font-variant-numeric="tabular-nums">2.0</text><path d="M293.3,322 L293.3,164.1 Q293.3,160.1 297.3,160.1 L328.2,160.1 Q332.2,160.1 332.2,164.1 L332.2,322 Z" fill="#d95926"/><text x="312.8" y="154.1" text-anchor="middle" font-family="system-ui,-apple-system,'Segoe UI',sans-serif" font-size="11" fill="#ffffff" font-variant-numeric="tabular-nums">2.0</text><path d="M397.0,322 L397.0,173.1 Q397.0,169.1 401.0,169.1 L431.8,169.1 Q435.8,169.1 435.8,173.1 L435.8,322 Z" fill="#d95926"/><text x="416.4" y="163.1" text-anchor="middle" font-family="system-ui,-apple-system,'Segoe UI',sans-serif" font-size="11" fill="#ffffff" font-variant-numeric="tabular-nums">1.9</text><path d="M500.7,322 L500.7,166.6 Q500.7,162.6 504.7,162.6 L535.5,162.6 Q539.5,162.6 539.5,166.6 L539.5,322 Z" fill="#d95926"/><text x="520.1" y="156.6" text-anchor="middle" font-family="system-ui,-apple-system,'Segoe UI',sans-serif" font-size="11" fill="#ffffff" font-variant-numeric="tabular-nums">2.0</text><path d="M126.8,322 L126.8,269.9 Q126.8,265.9 130.8,265.9 L161.7,265.9 Q165.7,265.9 165.7,269.9 L165.7,322 Z" fill="#3987e5"/><text x="146.2" y="259.9" text-anchor="middle" font-family="system-ui,-apple-system,'Segoe UI',sans-serif" font-size="11" fill="#ffffff" font-variant-numeric="tabular-nums">0.69</text><path d="M230.5,322 L230.5,274.8 Q230.5,270.8 234.5,270.8 L265.3,270.8 Q269.3,270.8 269.3,274.8 L269.3,322 Z" fill="#3987e5"/><text x="249.9" y="264.8" text-anchor="middle" font-family="system-ui,-apple-system,'Segoe UI',sans-serif" font-size="11" fill="#ffffff" font-variant-numeric="tabular-nums">0.63</text><path d="M334.2,322 L334.2,274.8 Q334.2,270.8 338.2,270.8 L369.0,270.8 Q373.0,270.8 373.0,274.8 L373.0,322 Z" fill="#3987e5"/><text x="353.6" y="264.8" text-anchor="middle" font-family="system-ui,-apple-system,'Segoe UI',sans-serif" font-size="11" fill="#ffffff" font-variant-numeric="tabular-nums">0.63</text><path d="M437.8,322 L437.8,267.4 Q437.8,263.4 441.8,263.4 L472.7,263.4 Q476.7,263.4 476.7,267.4 L476.7,322 Z" fill="#3987e5"/><text x="457.3" y="257.4" text-anchor="middle" font-family="system-ui,-apple-system,'Segoe UI',sans-serif" font-size="11" fill="#ffffff" font-variant-numeric="tabular-nums">0.72</text><path d="M541.5,322 L541.5,276.4 Q541.5,272.4 545.5,272.4 L576.3,272.4 Q580.3,272.4 580.3,276.4 L580.3,322 Z" fill="#3987e5"/><text x="560.9" y="266.4" text-anchor="middle" font-family="system-ui,-apple-system,'Segoe UI',sans-serif" font-size="11" fill="#ffffff" font-variant-numeric="tabular-nums">0.61</text><path d="M645.2,322 L645.2,274.8 Q645.2,270.8 649.2,270.8 L680.0,270.8 Q684.0,270.8 684.0,274.8 L684.0,322 Z" fill="#3987e5"/><text x="664.6" y="264.8" text-anchor="middle" font-family="system-ui,-apple-system,'Segoe UI',sans-serif" font-size="11" fill="#ffffff" font-variant-numeric="tabular-nums">0.63</text><rect x="74" y="358" width="10" height="10" rx="2" fill="#d95926"/><text x="89" y="367" font-family="system-ui,-apple-system,'Segoe UI',sans-serif" font-size="11" fill="#c3c2b7">500m (shipped)</text><rect x="188.39999999999998" y="358" width="10" height="10" rx="2" fill="#3987e5"/><text x="203.39999999999998" y="367" font-family="system-ui,-apple-system,'Segoe UI',sans-serif" font-size="11" fill="#c3c2b7">4 cores</text><text x="696" y="64" text-anchor="end" font-family="system-ui,-apple-system,'Segoe UI',sans-serif" font-size="11" fill="#898781">no 100k bar for 500m: that load never completed</text></svg>
