<svg xmlns="http://www.w3.org/2000/svg" viewBox="0 0 720 380" width="720" height="380" role="img"><rect width="720" height="380" fill="#1a1a19" rx="8"/><text x="28" y="26" font-family="system-ui,-apple-system,'Segoe UI',sans-serif" font-size="16" font-weight="600" fill="#ffffff">History Server cold load vs session size</text><text x="28" y="44" font-family="system-ui,-apple-system,'Segoe UI',sans-serif" font-size="12" fill="#898781">GET /enter_cluster, log-log: a straight line means cost scales linearly with tasks</text><text x="28" y="66" font-family="system-ui,-apple-system,'Segoe UI',sans-serif" font-size="11" fill="#898781">seconds (log scale)</text><line x1="74" y1="322.0" x2="696" y2="322.0" stroke="#2c2c2a" stroke-width="1"/><text x="66" y="326.0" text-anchor="end" font-family="system-ui,-apple-system,'Segoe UI',sans-serif" font-size="11" fill="#898781">0.1</text><line x1="74" y1="261.0" x2="696" y2="261.0" stroke="#2c2c2a" stroke-width="1"/><text x="66" y="265.0" text-anchor="end" font-family="system-ui,-apple-system,'Segoe UI',sans-serif" font-size="11" fill="#898781">1</text><line x1="74" y1="200.0" x2="696" y2="200.0" stroke="#2c2c2a" stroke-width="1"/><text x="66" y="204.0" text-anchor="end" font-family="system-ui,-apple-system,'Segoe UI',sans-serif" font-size="11" fill="#898781">10</text><line x1="74" y1="139.0" x2="696" y2="139.0" stroke="#2c2c2a" stroke-width="1"/><text x="66" y="143.0" text-anchor="end" font-family="system-ui,-apple-system,'Segoe UI',sans-serif" font-size="11" fill="#898781">100</text><line x1="74" y1="78.0" x2="696" y2="78.0" stroke="#2c2c2a" stroke-width="1"/><text x="66" y="82.0" text-anchor="end" font-family="system-ui,-apple-system,'Segoe UI',sans-serif" font-size="11" fill="#898781">1,000</text><text x="74.0" y="342.0" text-anchor="start" font-family="system-ui,-apple-system,'Segoe UI',sans-serif" font-size="12" fill="#c3c2b7">1k</text><text x="343.3" y="342.0" text-anchor="middle" font-family="system-ui,-apple-system,'Segoe UI',sans-serif" font-size="12" fill="#c3c2b7">10k</text><text x="612.5" y="342.0" text-anchor="middle" font-family="system-ui,-apple-system,'Segoe UI',sans-serif" font-size="12" fill="#c3c2b7">100k tasks</text><line x1="74" y1="322" x2="696" y2="322" stroke="#383835" stroke-width="1"/><path d="M74.0,239.2 L262.2,200.5 L343.3,181.8 L424.3,164.9 L531.5,146.2 L612.5,128.0" fill="none" stroke="#d95926" stroke-width="2" stroke-linejoin="round"/><circle cx="74.0" cy="239.2" r="4.5" fill="#d95926" stroke="#1a1a19" stroke-width="2"/><circle cx="262.2" cy="200.5" r="4.5" fill="#d95926" stroke="#1a1a19" stroke-width="2"/><circle cx="343.3" cy="181.8" r="4.5" fill="#d95926" stroke="#1a1a19" stroke-width="2"/><circle cx="424.3" cy="164.9" r="4.5" fill="#d95926" stroke="#1a1a19" stroke-width="2"/><circle cx="531.5" cy="146.2" r="4.5" fill="#d95926" stroke="#1a1a19" stroke-width="2"/><circle cx="612.5" cy="128.0" r="4.5" fill="#d95926" stroke="#1a1a19" stroke-width="2"/><text x="612.5" y="116.0" text-anchor="middle" font-family="system-ui,-apple-system,'Segoe UI',sans-serif" font-size="11" fill="#ffffff">151s</text><path d="M74.0,270.8 L262.2,230.4 L343.3,212.5 L424.3,190.2 L531.5,170.4 L612.5,150.5 L693.6,134.2" fill="none" stroke="#3987e5" stroke-width="2" stroke-linejoin="round"/><circle cx="74.0" cy="270.8" r="4.5" fill="#3987e5" stroke="#1a1a19" stroke-width="2"/><circle cx="262.2" cy="230.4" r="4.5" fill="#3987e5" stroke="#1a1a19" stroke-width="2"/><circle cx="343.3" cy="212.5" r="4.5" fill="#3987e5" stroke="#1a1a19" stroke-width="2"/><circle cx="424.3" cy="190.2" r="4.5" fill="#3987e5" stroke="#1a1a19" stroke-width="2"/><circle cx="531.5" cy="170.4" r="4.5" fill="#3987e5" stroke="#1a1a19" stroke-width="2"/><circle cx="612.5" cy="150.5" r="4.5" fill="#3987e5" stroke="#1a1a19" stroke-width="2"/><circle cx="693.6" cy="134.2" r="4.5" fill="#3987e5" stroke="#1a1a19" stroke-width="2"/><text x="693.6" y="122.2" text-anchor="middle" font-family="system-ui,-apple-system,'Segoe UI',sans-serif" font-size="11" fill="#ffffff">120s</text><rect x="74" y="358" width="10" height="10" rx="2" fill="#d95926"/><text x="89" y="367" font-family="system-ui,-apple-system,'Segoe UI',sans-serif" font-size="11" fill="#c3c2b7">500m: 1.5 ms/task</text><rect x="208.2" y="358" width="10" height="10" rx="2" fill="#3987e5"/><text x="223.2" y="367" font-family="system-ui,-apple-system,'Segoe UI',sans-serif" font-size="11" fill="#c3c2b7">4 cores: 0.6 ms/task</text><text x="696" y="367" text-anchor="end" font-family="system-ui,-apple-system,'Segoe UI',sans-serif" font-size="11" fill="#898781">both straight: no cliff anywhere, only a different constant</text></svg>
