<svg xmlns="http://www.w3.org/2000/svg" viewBox="0 0 720 380" width="720" height="380" role="img"><rect width="720" height="380" fill="#1a1a19" rx="8"/><text x="28" y="26" font-family="system-ui,-apple-system,'Segoe UI',sans-serif" font-size="16" font-weight="600" fill="#ffffff">Memory to load one session</text><text x="28" y="44" font-family="system-ui,-apple-system,'Segoe UI',sans-serif" font-size="12" fill="#898781">peak while a single session is loaded and served</text><line x1="74" y1="322.0" x2="696" y2="322.0" stroke="#2c2c2a" stroke-width="1"/><text x="66" y="326.0" text-anchor="end" font-family="system-ui,-apple-system,'Segoe UI',sans-serif" font-size="11" fill="#898781" font-variant-numeric="tabular-nums">0</text><line x1="74" y1="281.3" x2="696" y2="281.3" stroke="#2c2c2a" stroke-width="1"/><text x="66" y="285.3" text-anchor="end" font-family="system-ui,-apple-system,'Segoe UI',sans-serif" font-size="11" fill="#898781" font-variant-numeric="tabular-nums">500</text><line x1="74" y1="240.7" x2="696" y2="240.7" stroke="#2c2c2a" stroke-width="1"/><text x="66" y="244.7" text-anchor="end" font-family="system-ui,-apple-system,'Segoe UI',sans-serif" font-size="11" fill="#898781" font-variant-numeric="tabular-nums">1,000</text><line x1="74" y1="200.0" x2="696" y2="200.0" stroke="#2c2c2a" stroke-width="1"/><text x="66" y="204.0" text-anchor="end" font-family="system-ui,-apple-system,'Segoe UI',sans-serif" font-size="11" fill="#898781" font-variant-numeric="tabular-nums">1,500</text><line x1="74" y1="159.3" x2="696" y2="159.3" stroke="#2c2c2a" stroke-width="1"/><text x="66" y="163.3" text-anchor="end" font-family="system-ui,-apple-system,'Segoe UI',sans-serif" font-size="11" fill="#898781" font-variant-numeric="tabular-nums">2,000</text><line x1="74" y1="118.7" x2="696" y2="118.7" stroke="#2c2c2a" stroke-width="1"/><text x="66" y="122.7" text-anchor="end" font-family="system-ui,-apple-system,'Segoe UI',sans-serif" font-size="11" fill="#898781" font-variant-numeric="tabular-nums">2,500</text><line x1="74" y1="78.0" x2="696" y2="78.0" stroke="#2c2c2a" stroke-width="1"/><text x="66" y="82.0" text-anchor="end" font-family="system-ui,-apple-system,'Segoe UI',sans-serif" font-size="11" fill="#898781" font-variant-numeric="tabular-nums">3,000</text><line x1="74" y1="322" x2="696" y2="322" stroke="#383835" stroke-width="1"/><text x="28" y="66" font-family="system-ui,-apple-system,'Segoe UI',sans-serif" font-size="11" fill="#898781">MiB</text><text x="125.8" y="342.0" text-anchor="middle" font-family="system-ui,-apple-system,'Segoe UI',sans-serif" font-size="12" fill="#c3c2b7">1k</text><text x="229.5" y="342.0" text-anchor="middle" font-family="system-ui,-apple-system,'Segoe UI',sans-serif" font-size="12" fill="#c3c2b7">5k</text><text x="333.2" y="342.0" text-anchor="middle" font-family="system-ui,-apple-system,'Segoe UI',sans-serif" font-size="12" fill="#c3c2b7">10k</text><text x="436.8" y="342.0" text-anchor="middle" font-family="system-ui,-apple-system,'Segoe UI',sans-serif" font-size="12" fill="#c3c2b7">50k</text><text x="540.5" y="342.0" text-anchor="middle" font-family="system-ui,-apple-system,'Segoe UI',sans-serif" font-size="12" fill="#c3c2b7">100k</text><text x="644.2" y="342.0" text-anchor="middle" font-family="system-ui,-apple-system,'Segoe UI',sans-serif" font-size="12" fill="#c3c2b7">200k</text><path d="M86.0,322 L86.0,317.7 Q86.0,313.7 90.0,313.7 L120.8,313.7 Q124.8,313.7 124.8,317.7 L124.8,322 Z" fill="#3987e5"/><text x="105.4" y="307.7" text-anchor="middle" font-family="system-ui,-apple-system,'Segoe UI',sans-serif" font-size="11" fill="#ffffff" font-variant-numeric="tabular-nums">102</text><path d="M189.7,322 L189.7,309.8 Q189.7,305.8 193.7,305.8 L224.5,305.8 Q228.5,305.8 228.5,309.8 L228.5,322 Z" fill="#3987e5"/><text x="209.1" y="299.8" text-anchor="middle" font-family="system-ui,-apple-system,'Segoe UI',sans-serif" font-size="11" fill="#ffffff" font-variant-numeric="tabular-nums">199</text><path d="M293.3,322 L293.3,299.8 Q293.3,295.8 297.3,295.8 L328.2,295.8 Q332.2,295.8 332.2,299.8 L332.2,322 Z" fill="#3987e5"/><text x="312.8" y="289.8" text-anchor="middle" font-family="system-ui,-apple-system,'Segoe UI',sans-serif" font-size="11" fill="#ffffff" font-variant-numeric="tabular-nums">322</text><path d="M397.0,322 L397.0,219.1 Q397.0,215.1 401.0,215.1 L431.8,215.1 Q435.8,215.1 435.8,219.1 L435.8,322 Z" fill="#3987e5"/><text x="416.4" y="209.1" text-anchor="middle" font-family="system-ui,-apple-system,'Segoe UI',sans-serif" font-size="11" fill="#ffffff" font-variant-numeric="tabular-nums">1314</text><path d="M500.7,322 L500.7,148.6 Q500.7,144.6 504.7,144.6 L535.5,144.6 Q539.5,144.6 539.5,148.6 L539.5,322 Z" fill="#3987e5"/><text x="520.1" y="138.6" text-anchor="middle" font-family="system-ui,-apple-system,'Segoe UI',sans-serif" font-size="11" fill="#ffffff" font-variant-numeric="tabular-nums">2181</text><path d="M604.3,322 L604.3,92.2 Q604.3,88.2 608.3,88.2 L639.2,88.2 Q643.2,88.2 643.2,92.2 L643.2,322 Z" fill="#3987e5"/><text x="623.8" y="82.2" text-anchor="middle" font-family="system-ui,-apple-system,'Segoe UI',sans-serif" font-size="11" fill="#ffffff" font-variant-numeric="tabular-nums">2875</text><path d="M334.2,322 L334.2,307.8 Q334.2,303.8 338.2,303.8 L369.0,303.8 Q373.0,303.8 373.0,307.8 L373.0,322 Z" fill="#199e70"/><path d="M437.8,322 L437.8,255.3 Q437.8,251.3 441.8,251.3 L472.7,251.3 Q476.7,251.3 476.7,255.3 L476.7,322 Z" fill="#199e70"/><text x="457.3" y="245.3" text-anchor="middle" font-family="system-ui,-apple-system,'Segoe UI',sans-serif" font-size="11" fill="#ffffff" font-variant-numeric="tabular-nums">869</text><path d="M541.5,322 L541.5,222.6 Q541.5,218.6 545.5,218.6 L576.3,218.6 Q580.3,218.6 580.3,222.6 L580.3,322 Z" fill="#199e70"/><text x="560.9" y="212.6" text-anchor="middle" font-family="system-ui,-apple-system,'Segoe UI',sans-serif" font-size="11" fill="#ffffff" font-variant-numeric="tabular-nums">1271</text><path d="M645.2,322 L645.2,154.0 Q645.2,150.0 649.2,150.0 L680.0,150.0 Q684.0,150.0 684.0,154.0 L684.0,322 Z" fill="#199e70"/><text x="664.6" y="144.0" text-anchor="middle" font-family="system-ui,-apple-system,'Segoe UI',sans-serif" font-size="11" fill="#ffffff" font-variant-numeric="tabular-nums">2115</text><rect x="74" y="358" width="10" height="10" rx="2" fill="#3987e5"/><text x="89" y="367" font-family="system-ui,-apple-system,'Segoe UI',sans-serif" font-size="11" fill="#c3c2b7">cgroup total (what a limit sees)</text><rect x="307.2" y="358" width="10" height="10" rx="2" fill="#199e70"/><text x="322.2" y="367" font-family="system-ui,-apple-system,'Segoe UI',sans-serif" font-size="11" fill="#c3c2b7">Go heap</text><text x="696" y="64" text-anchor="end" font-family="system-ui,-apple-system,'Segoe UI',sans-serif" font-size="11" fill="#898781">400 MiB + 20 KiB per task covers every size measured</text></svg>
